<svg width="720" height="720" version="1.1" xmlns="http://www.w3.org/2000/svg" desc="Created with imagetracer.js version 1.2.6" ><path fill="rgb(255,249,218)" stroke="rgb(255,249,218)" stroke-width="1" opacity="1" d="M 221 524 L 236 524 L 236 531.5 L 237 532.5 L 237 542.5 L 238 543.5 L 239 556.5 L 246 585 L 265 585 L 265 593.5 L 270 622 L 262 622.5 L 277 647.5 L 272 648 Q 253.9 623 240 592.5 L 227 555.5 L 221 524 Z " /><path fill="rgb(255,249,218)" stroke="rgb(255,249,218)" stroke-width="1" opacity="1" d="M 338 602 L 429.5 602 L 430 603.5 Q 419.2 626.7 404 645.5 L 406.5 646 L 430.5 639 L 459.5 623 L 460 624.5 Q 447.7 650.7 426.5 668 Q 408.6 683.1 383.5 691 L 350.5 691 L 346 682.5 L 340 662.5 L 338 652.5 L 337 633.5 L 336 632.5 L 336 618.5 L 337 617.5 L 338 602 Z " /><path fill="rgb(255,255,255)" stroke="rgb(255,255,255)" stroke-width="1" opacity="1" d="M 0 0 L 720 0 L 720 720 L 0 720 L 0 0 Z M 378 10 L 378 30 L 379 31 L 379 77 L 378 78 L 378 88 L 372 119 L 364 142 L 343 179 L 323 205 L 277 257 L 253 288 L 232 319 L 209 361 L 192 400 L 183 428 L 176 462 L 176 499 L 177 500 L 177 510 L 178 511 L 178 521 L 184 549 L 189 562 L 189 565 L 207 602 L 230 633 Q 248 653 271 670 L 319 703 L 320 703 L 307 688 L 296 665 L 287 627 L 287 613 L 286 612 L 286 578 L 287 577 L 287 567 L 289 560 L 289 554 L 297 522 L 305 502 Q 304 498 307 499 L 322 468 L 340 439 L 379 384 L 401 349 L 417 317 L 422 304 L 432 270 L 436 247 Q 434 239 438 240 L 438 222 L 439 221 Q 441 215 438 214 L 438 193 L 437 192 L 436 175 L 435 174 L 433 156 L 427 133 L 427 127 L 433 103 L 434 89 L 435 88 L 435 76 L 436 75 L 436 53 L 435 52 L 434 34 L 433 34 L 433 47 L 434 48 L 432 83 L 428 106 L 424 118 Q 406 58 378 10 Z M 432 20 L 431 23 L 432 23 L 432 20 Z M 433 27 L 432 33 L 433 33 L 433 27 Z M 293 200 L 197 282 L 173 306 L 156 327 L 139 353 L 127 376 L 117 403 L 112 423 L 110 443 L 109 444 L 109 462 L 111 464 L 111 475 L 112 476 L 113 490 L 121 521 L 127 536 Q 148 582 182 616 L 217 646 L 218 646 Q 190 614 173 572 L 160 532 L 160 528 L 156 515 L 154 493 L 152 485 L 152 445 L 153 444 L 154 427 L 155 426 Q 154 418 157 419 L 160 403 L 170 375 Q 182 347 198 323 Q 241 258 293 202 L 293 200 Z M 462 212 L 461 238 L 460 239 L 460 250 L 459 251 L 459 259 L 457 266 L 457 271 L 451 297 L 439 333 L 429 357 L 416 383 L 402 407 L 330 513 L 316 554 L 314 571 L 313 572 L 313 582 L 312 583 L 312 610 L 313 611 L 313 620 L 320 655 L 333 690 L 347 713 L 379 711 L 408 705 L 433 697 L 460 684 L 476 674 L 492 661 Q 524 632 543 589 L 555 556 L 563 521 L 565 501 L 566 500 L 566 496 Q 555 520 538 538 Q 519 559 496 575 L 494 575 L 508 548 L 516 526 L 523 498 L 525 480 L 527 473 L 527 460 L 528 459 L 528 413 L 527 412 L 527 402 L 526 401 L 526 391 L 524 384 L 522 366 L 515 335 L 503 296 L 491 266 Q 479 236 462 212 Z M 567 491 L 566 494 L 567 494 L 567 491 Z " /><path fill="rgb(255,255,255)" stroke="rgb(255,255,255)" stroke-width="1" opacity="1" d="M 262.5 622 L 271 622 L 271 625.5 L 277 643.5 L 284 658.5 L 303 682.5 L 291 671.5 L 273 648.5 L 277 647.5 Q 267.9 635.6 262.5 622 Z " /><path fill="rgb(255,255,255)" stroke="rgb(255,255,255)" stroke-width="1" opacity="1" d="M 350.5 691 L 382 691.5 L 358.5 698 L 353.5 698 L 350.5 691 Z " /><path fill="rgb(224,19,25)" stroke="rgb(224,19,25)" stroke-width="1" opacity="1" d="M 375.5 6 L 376.5 8 L 375.5 6 Z " /><path fill="rgb(224,19,25)" stroke="rgb(224,19,25)" stroke-width="1" opacity="1" d="M 377.5 10 L 385 22.5 L 404 62.5 L 424 118.5 L 421 129.5 L 411 153.5 L 397.5 178 L 397 171 L 393 172.5 L 390 188.5 L 385 198.5 L 369 220.5 L 298 305.5 L 275 335.5 L 256 364.5 L 247 380.5 L 246 385 L 199.5 385 L 199 382.5 L 216 346.5 L 232 318.5 L 253 287.5 L 277 256.5 L 327 199.5 L 343 178.5 L 357 155.5 L 370 125.5 L 376 100.5 L 377 88.5 L 378 87.5 L 378 77.5 L 379 76.5 L 379 30.5 L 378 29.5 L 377.5 10 Z " /><path fill="rgb(224,19,25)" stroke="rgb(224,19,25)" stroke-width="1" opacity="1" d="M 426.5 130 L 433 155.5 L 435 173.5 L 436 174.5 L 437 191.5 L 438 192.5 L 438 213.5 Q 440.5 215 439 220.5 L 438 221.5 L 438 240 Q 434.5 238.9 436 246.5 L 428 285.5 L 417 316.5 L 401 348.5 L 377.5 385 L 341 384.5 Q 365.8 350.8 382 308.5 L 388 289.5 L 394 260.5 L 395 242.5 L 396 241.5 L 397 203.5 L 409 180.5 L 418 158.5 L 426.5 130 Z " /><path fill="rgb(224,19,25)" stroke="rgb(224,19,25)" stroke-width="1" opacity="1" d="M 298.5 194 L 293 200.5 Q 254.3 244.3 219 291.5 L 186 342.5 L 174 365.5 L 168 382 L 125 381.5 Q 137.5 351 156 326.5 L 173 305.5 L 196.5 282 L 298.5 194 Z " /><path fill="rgb(224,19,25)" stroke="rgb(224,19,25)" stroke-width="1" opacity="1" d="M 461.5 212 Q 504.3 275.5 521 364 L 425 363.5 L 439 332.5 L 448 306.5 L 455 280.5 L 459 258.5 L 459 250.5 L 460 249.5 L 461.5 212 Z " /><path fill="rgb(240,148,6)" stroke="rgb(240,148,6)" stroke-width="1" opacity="1" d="M 430.5 19 L 432 22.5 L 431 22.5 L 430.5 19 Z " /><path fill="rgb(240,148,6)" stroke="rgb(240,148,6)" stroke-width="1" opacity="1" d="M 432.5 27 L 435 40.5 L 435 51.5 L 436 52.5 L 436 74.5 L 435 75.5 L 434 95.5 L 430 117.5 L 424 140.5 L 416.5 160 L 407 159.5 L 411 153.5 L 421 129.5 Q 423 116 428 105.5 L 432 82.5 L 432 75.5 L 433 74.5 L 433 54.5 Q 435.5 53 434 47.5 L 433 46.5 L 432.5 27 Z " /><path fill="rgb(240,148,6)" stroke="rgb(240,148,6)" stroke-width="1" opacity="1" d="M 373.5 243 L 395 243 L 395 252.5 L 388 289.5 L 382 308.5 L 375.5 323 L 315.5 323 L 315 321.5 L 363 257.5 L 365 253 L 368 251.5 L 373.5 243 Z " /><path fill="rgb(240,148,6)" stroke="rgb(240,148,6)" stroke-width="1" opacity="1" d="M 111 434 L 152.5 434 L 153 434.5 L 153 443.5 L 152 444.5 L 152 484.5 L 154 496 L 115.5 496 L 114 494.5 L 112 483.5 L 112 475.5 L 111 474.5 L 111 463.5 L 109 461.5 L 109 443.5 L 111 434 Z " /><path fill="rgb(240,148,6)" stroke="rgb(240,148,6)" stroke-width="1" opacity="1" d="M 382.5 436 L 449.5 436 L 450 437.5 L 430 467.5 L 379.5 522 L 327.5 522 L 327 520.5 L 336 502.5 L 382.5 436 Z " /><path fill="rgb(240,148,6)" stroke="rgb(240,148,6)" stroke-width="1" opacity="1" d="M 460 436 L 528 436 L 528 458.5 L 527 459.5 L 527 472.5 L 525 479.5 L 523 497.5 L 517 522 L 455.5 522 L 455 519.5 L 459 497.5 L 461 438.5 L 460 436 Z " /><path fill="rgb(240,148,6)" stroke="rgb(240,148,6)" stroke-width="1" opacity="1" d="M 177 455 L 223 455.5 L 220 471.5 L 219 501.5 L 220 502.5 L 220 518.5 L 223 536 L 181.5 536 Q 180.5 536 181 531.5 L 178 520.5 L 178 510.5 L 177 509.5 L 177 499.5 L 176 498.5 L 176 461.5 L 177 455 Z " /><path fill="rgb(240,148,6)" stroke="rgb(240,148,6)" stroke-width="1" opacity="1" d="M 293.5 455 L 330 455.5 L 322 467.5 L 307 499 Q 304 497.8 305 501.5 L 300 512.5 L 294 534.5 L 292.5 536 L 267.5 536 L 267 532.5 L 277 491.5 L 288 464.5 L 293.5 455 Z " /><path fill="rgb(240,148,6)" stroke="rgb(240,148,6)" stroke-width="1" opacity="1" d="M 566.5 491 L 567 493.5 L 566 493.5 L 566.5 491 Z " /><path fill="rgb(240,148,6)" stroke="rgb(240,148,6)" stroke-width="1" opacity="1" d="M 565.5 496 L 566 499.5 L 565 500.5 L 563 520.5 L 561.5 522 L 550 521.5 Q 559.4 510.4 565.5 496 Z " /><path fill="rgb(252,209,4)" stroke="rgb(252,209,4)" stroke-width="1" opacity="1" d="M 407.5 160 L 417 160.5 Q 397.1 212.1 366.5 253 Q 364.3 252.3 365 254.5 L 322 311.5 L 315 323 L 376 323.5 Q 352.8 373.8 319.5 414 Q 317.3 413.3 318 415.5 Q 300.4 437.4 288 464.5 L 277 491.5 L 272 508.5 L 272 513 L 236.5 513 L 236 512.5 L 236 505.5 L 237 504.5 L 237 493.5 L 240 481.5 L 242 465.5 L 250 438.5 Q 268 389.5 296 350.5 L 266 349.5 L 290 315.5 L 372 216.5 Q 391.9 190.4 407.5 160 Z " /><path fill="rgb(252,209,4)" stroke="rgb(252,209,4)" stroke-width="1" opacity="1" d="M 459.5 416 L 461 453.5 L 460 454.5 L 460 477 L 422 476.5 Q 446 451.5 459.5 416 Z " /><path fill="rgb(252,209,4)" stroke="rgb(252,209,4)" stroke-width="1" opacity="1" d="M 115 496 L 153.5 496 L 154 499.5 L 155 500.5 L 156 514.5 L 163 543.5 L 173 571.5 L 186 599.5 L 202 625.5 L 209 633.5 L 201.5 634 L 182 615.5 Q 156.9 589.6 138 557.5 L 121 520.5 L 115 496 Z " /><path fill="rgb(252,209,4)" stroke="rgb(252,209,4)" stroke-width="1" opacity="1" d="M 327.5 522 L 378.5 522 L 379 523.5 Q 356.4 546.4 344 579.5 L 337 608.5 L 336 632.5 L 337 633.5 L 338 652.5 L 341 666.5 L 346 682.5 L 353.5 698 Q 412.8 689.3 443 651.5 Q 453.8 639.8 460 623.5 L 458.5 624 L 430.5 639 L 419.5 643 L 404.5 646 L 406 643.5 Q 424.5 619 437 588.5 L 448 556.5 L 455 522 L 515.5 522 L 516 525.5 L 508 547.5 L 494 574.5 L 495.5 575 Q 519.5 559 538 537.5 L 550.5 522 L 561.5 522 L 562 525.5 Q 545.7 612.2 491.5 661 L 475.5 674 L 459.5 684 L 432.5 697 L 407.5 705 L 378.5 711 L 345 712 Q 329.5 686.8 320 654.5 L 313 619.5 L 313 610.5 L 312 609.5 L 312 582.5 L 313 581.5 L 313 571.5 L 314 570.5 L 316 553.5 L 323 530.5 L 327.5 522 Z " /><path fill="rgb(252,209,4)" stroke="rgb(252,209,4)" stroke-width="1" opacity="1" d="M 182 536 L 222.5 536 L 223 538.5 L 234 577.5 L 251 614.5 Q 271.1 651.4 299.5 680 L 300 678.5 L 284 658.5 L 274 635.5 L 266 601.5 L 265 580.5 L 264 579.5 L 264 560.5 L 265 559.5 L 266 538.5 L 267 536 L 292.5 536 L 293 538.5 L 287 566.5 L 287 576.5 L 286 577.5 L 286 611.5 L 287 612.5 L 287 626.5 L 296 664.5 L 307 687.5 L 322 704.5 L 319.5 703 L 270.5 670 Q 248.5 653 230 632.5 Q 208.8 609.2 195 578.5 L 184 548.5 L 182 536 Z " /><path fill="rgb(231,93,21)" stroke="rgb(231,93,21)" stroke-width="1" opacity="1" d="M 394.5 171 L 397 171.5 L 397 179.5 L 389.5 191 L 389 189.5 L 393 172.5 L 394.5 171 Z " /><path fill="rgb(231,93,21)" stroke="rgb(231,93,21)" stroke-width="1" opacity="1" d="M 396.5 205 L 397 221.5 L 396 222.5 L 396 241.5 L 394.5 243 L 374.5 243 L 374 241.5 L 384 227.5 L 396.5 205 Z " /><path fill="rgb(231,93,21)" stroke="rgb(231,93,21)" stroke-width="1" opacity="1" d="M 425.5 364 L 520.5 364 L 522 365.5 L 524 383.5 L 526 390.5 L 527 411.5 L 528 412.5 L 528 436 L 460.5 436 L 460 435.5 L 460 416.5 L 459 416.5 L 451 436 L 383.5 436 L 383 434.5 Q 407 402 425.5 364 Z " /><path fill="rgb(231,93,21)" stroke="rgb(231,93,21)" stroke-width="1" opacity="1" d="M 125.5 382 L 166.5 382 L 167 383.5 Q 159.3 399.1 157 419 Q 153.5 417.9 155 425.5 Q 152.5 427 154 432.5 L 152.5 434 L 111.5 434 Q 110.4 433.9 111 428.5 L 117 402.5 L 125.5 382 Z " /><path fill="rgb(231,93,21)" stroke="rgb(231,93,21)" stroke-width="1" opacity="1" d="M 198 385 L 244.5 385 L 245 386.5 L 236 405.5 L 228 429.5 L 223 455 L 177 454.5 Q 184.3 416 198 385 Z " /><path fill="rgb(231,93,21)" stroke="rgb(231,93,21)" stroke-width="1" opacity="1" d="M 340 385 L 377 385.5 L 329.5 455 L 293 454.5 L 318 414 L 322 411.5 L 340 385 Z " /><path fill="rgb(255,239,139)" stroke="rgb(255,239,139)" stroke-width="1" opacity="1" d="M 265 350 L 296 350.5 Q 268 389.5 250 438.5 L 241 470.5 L 240 481.5 L 237 493.5 L 236 513 L 270.5 513 L 271 516.5 L 266 538.5 L 265 559.5 L 264 560.5 L 264 579.5 L 265 585 L 246.5 585 L 246 581.5 L 242 570.5 L 239 556.5 L 236 524 L 221.5 524 Q 220.5 524 221 519.5 L 220 518.5 L 219 488.5 L 220 487.5 L 220 471.5 L 221 470.5 L 223 450.5 L 228 429.5 L 236 405.5 L 247 380.5 L 265 350 Z " /><path fill="rgb(255,239,139)" stroke="rgb(255,239,139)" stroke-width="1" opacity="1" d="M 421.5 477 L 459.5 477 Q 460.6 477.1 460 482.5 L 459 483.5 L 459 497.5 L 458 498.5 L 455 525.5 L 449 548.5 L 449 552.5 L 437 588.5 L 431 602 L 339.5 602 Q 338.5 602 339 597.5 L 348 569.5 L 358 550.5 Q 386.1 510.1 421.5 477 Z " /><path fill="rgb(255,239,139)" stroke="rgb(255,239,139)" stroke-width="1" opacity="1" d="M 203.5 634 Q 210.8 632.8 212 637.5 L 218 645.5 L 216.5 646 Q 208 640.9 203.5 634 Z " /><path fill="rgb(255,239,139)" stroke="rgb(255,239,139)" stroke-width="1" opacity="1" d="M 346.5 712 L 358 712.5 L 346.5 713 L 346.5 712 Z " /></svg>